<?xml version="1.0" encoding="iso-8859-1"?>
<!-- Generator: Adobe Illustrator 19.0.0, SVG Export Plug-In . SVG Version: 6.00 Build 0)  -->
<svg version="1.1" id="Layer_1" xmlns="http://www.w3.org/2000/svg" xmlns:xlink="http://www.w3.org/1999/xlink" x="0px" y="0px"
	 viewBox="0 0 512 512" style="enable-background:new 0 0 512 512;" xml:space="preserve">
<circle style="fill:#F7B239;" cx="213.459" cy="55.02" r="18.435"/>
<g>
	<circle style="fill:#F2F2F2;" cx="298.541" cy="55.02" r="18.435"/>
	<rect x="15.641" y="107.885" style="fill:#F2F2F2;" width="471.855" height="186.431"/>
	<rect x="15.641" y="325.569" style="fill:#F2F2F2;" width="471.855" height="186.431"/>
</g>
<path style="fill:#F95428;" d="M0,0v285.112V512h40.117V343.976h69.825h92.627H256h73.029h73.044h69.825V512H512V285.112V0H0z
	 M298.541,36.586c10.182,0,18.435,8.253,18.435,18.435s-8.253,18.435-18.435,18.435c-10.182,0-18.435-8.253-18.435-18.435
	S288.36,36.586,298.541,36.586z M213.459,36.586c10.182,0,18.435,8.253,18.435,18.435s-8.253,18.435-18.435,18.435
	s-18.435-8.253-18.435-18.435S203.277,36.586,213.459,36.586z M402.059,285.112h-73.029h-73.015h-73.044h-73.029H40.117V117.088
	h69.825h73.029h73.044h92.613h53.432h69.839v168.024H402.059z"/>
<g>
	<polygon style="fill:#4D4D4D;" points="348.627,117.088 348.627,206.893 329.029,206.893 309.446,206.893 309.446,117.088 	"/>
	<polygon style="fill:#4D4D4D;" points="275.583,117.088 275.583,206.893 256.014,206.893 236.417,206.893 236.417,117.088 
		256.014,117.088 	"/>
	<polygon style="fill:#4D4D4D;" points="129.085,117.088 129.085,206.893 109.941,206.893 89.918,206.893 89.918,117.088 
		109.941,117.088 	"/>
</g>
<path style="fill:#F7B239;" d="M40.117,82.672c4.263,0,8.189-2.649,9.813-6.58c1.801-4.36,0.455-9.562-3.287-12.455
	c-7.635-5.903-18.954,1.065-16.931,10.58C30.743,79.073,35.143,82.672,40.117,82.672z"/>
<path style="fill:#3A88D6;" d="M69.669,80.871c3.82,2.582,9.032,2.314,12.597-0.581c3.471-2.82,4.804-7.626,3.313-11.838
	c-3.14-8.86-16.01-9.311-19.753-0.676C63.823,72.387,65.39,78.12,69.669,80.871C70.234,81.254,69.073,80.488,69.669,80.871z"/>
<path style="fill:#F7B239;" d="M101.19,76.107c0.545,1.285,1.326,2.445,2.297,3.446c6.703,6.497,18.398,1.712,18.16-7.777
	c-0.233-9.22-11.607-13.62-18.16-7.269C100.481,67.604,99.625,72.095,101.19,76.107C101.461,76.745,100.937,75.454,101.19,76.107z"
	/>
<g>
	<path style="fill:#3A88D6;" d="M136.642,76.092c1.807,4.363,6.451,7.092,11.15,6.496c4.41-0.559,8.062-3.898,9.044-8.228
		c1.055-4.648-1.239-9.577-5.472-11.76c-4.117-2.121-9.112-1.305-12.425,1.906C135.95,67.587,135.051,72.105,136.642,76.092
		C136.912,76.745,136.388,75.454,136.642,76.092z"/>
	<path style="fill:#3A88D6;" d="M30.288,44.895c3.013,7.279,13.338,8.646,18.205,2.453c2.957-3.761,2.931-9.231,0.028-13.018
		c-3.21-4.187-9.318-5.311-13.846-2.629c-4.667,2.765-6.153,8.467-4.308,13.378"/>
</g>
<path style="fill:#F7B239;" d="M65.739,44.895c1.713,4.136,6.007,6.842,10.488,6.556c4.186-0.267,7.947-3.083,9.349-7.041
	c1.513-4.268,0.118-9.182-3.473-11.964c-3.521-2.728-8.45-2.958-12.218-0.596C65.528,34.585,63.849,40.158,65.739,44.895
	C66.01,45.548,65.485,44.257,65.739,44.895z"/>
<path style="fill:#3A88D6;" d="M101.19,44.895c1.673,4.043,5.883,6.753,10.258,6.568c4.307-0.182,8.199-3.101,9.616-7.167
	c1.421-4.074,0.095-8.781-3.179-11.574c-3.508-2.993-8.674-3.256-12.562-0.844c-4.521,2.802-5.859,8.396-4.054,13.201"/>
<path style="fill:#F7B239;" d="M136.642,44.895c1.805,4.36,6.448,7.093,11.144,6.496c4.412-0.56,8.067-3.895,9.05-8.228
	c1.055-4.65-1.239-9.579-5.475-11.76c-4.117-2.12-9.108-1.306-12.422,1.906C135.95,36.39,135.051,40.908,136.642,44.895
	C136.912,45.548,136.388,44.257,136.642,44.895z"/>
<path style="fill:#3A88D6;" d="M355.717,76.092c3.28,7.921,14.532,8.759,18.939,1.402c2.398-4.002,1.859-9.253-1.306-12.684
	c-3.25-3.524-8.6-4.389-12.819-2.154C355.73,65.199,353.72,71.091,355.717,76.092C355.986,76.745,355.462,75.454,355.717,76.092z"/>
<path style="fill:#F7B239;" d="M391.168,76.107c1.743,4.115,6.072,6.858,10.549,6.537c4.343-0.311,8.215-3.392,9.463-7.57
	c1.336-4.471-0.516-9.509-4.47-12.001c-3.83-2.415-8.985-2.138-12.482,0.759c-3.768,3.121-4.504,8.016-2.982,12.452"/>
<path style="fill:#3A88D6;" d="M426.619,76.092c1.695,4.092,5.973,6.824,10.404,6.558c4.392-0.262,8.33-3.345,9.594-7.568
	c1.258-4.199-0.289-8.949-3.813-11.566c-3.813-2.83-9.28-2.761-12.996,0.208c-3.803,3.039-4.775,8.124-3.113,12.553"/>
<g>
	<path style="fill:#F7B239;" d="M465.983,80.871c7.238,4.765,17.177-0.913,16.516-9.616c-0.682-8.976-11.747-12.954-18.131-6.748
		C459.797,69.215,460.431,77.207,465.983,80.871C466.566,81.254,465.403,80.488,465.983,80.871z"/>
	<path style="fill:#F7B239;" d="M355.717,44.91c1.761,4.159,6.076,6.88,10.608,6.532c4.637-0.356,8.547-3.759,9.583-8.277
		c2.13-9.277-8.615-16.373-16.378-11.096C355.375,34.891,353.912,40.285,355.717,44.91C355.986,45.548,355.462,44.257,355.717,44.91
		z"/>
</g>
<path style="fill:#3A88D6;" d="M395.096,49.674c8.104,5.478,18.925-2.65,16.069-11.927c-1.334-4.338-5.364-7.429-9.912-7.54
	c-4.531-0.109-8.748,2.777-10.268,7.046C389.373,41.78,391.068,47.021,395.096,49.674C395.663,50.057,394.515,49.291,395.096,49.674
	z"/>
<path style="fill:#F7B239;" d="M426.619,44.895c1.692,4.085,5.966,6.815,10.387,6.56c4.301-0.248,8.155-3.209,9.526-7.29
	c1.429-4.254-0.128-9.169-3.725-11.844c-3.762-2.795-9.146-2.769-12.863,0.096c-3.908,3.013-4.932,8.178-3.247,12.662"/>
<path style="fill:#3A88D6;" d="M465.983,49.674c6.885,4.532,16.366-0.339,16.544-8.615c0.203-9.46-11.469-14.254-18.16-7.75
	C459.796,38.019,460.434,46.011,465.983,49.674C466.566,50.057,465.403,49.291,465.983,49.674z"/>
<g>
	<rect x="104.978" y="206.893" style="fill:#4D4D4D;" width="9.926" height="78.219"/>
	<rect x="397.096" y="116.847" style="fill:#4D4D4D;" width="9.926" height="168.265"/>
	<rect x="324.066" y="206.893" style="fill:#4D4D4D;" width="9.926" height="78.219"/>
	<rect x="251.037" y="206.893" style="fill:#4D4D4D;" width="9.926" height="78.219"/>
	<rect x="178.007" y="116.847" style="fill:#4D4D4D;" width="9.926" height="168.265"/>
	<polygon style="fill:#4D4D4D;" points="422.096,343.976 402.073,343.976 382.929,343.976 382.929,433.781 397.096,433.781 
		397.096,512 407.022,512 407.022,433.781 422.096,433.781 	"/>
	<polygon style="fill:#4D4D4D;" points="236.417,343.976 236.417,433.781 251.037,433.781 251.037,512 260.963,512 260.963,433.781 
		275.597,433.781 275.597,343.976 256,343.976 	"/>
	<polygon style="fill:#4D4D4D;" points="163.387,433.781 178.007,433.781 178.007,512 187.934,512 187.934,433.781 202.568,433.781 
		202.568,343.976 163.387,343.976 	"/>
	<rect x="104.978" y="343.735" style="fill:#4D4D4D;" width="9.926" height="168.265"/>
	<rect x="324.066" y="343.735" style="fill:#4D4D4D;" width="9.926" height="168.265"/>
</g>
<g>
</g>
<g>
</g>
<g>
</g>
<g>
</g>
<g>
</g>
<g>
</g>
<g>
</g>
<g>
</g>
<g>
</g>
<g>
</g>
<g>
</g>
<g>
</g>
<g>
</g>
<g>
</g>
<g>
</g>
</svg>
